{
	"asset":{
		"generator":"Khronos glTF Blender I/O v4.1.63",
		"version":"2.0"
	},
	"extensionsUsed":[
		"KHR_materials_emissive_strength"
	],
	"scene":0,
	"scenes":[
		{
			"extras":{
				"photographer":{},
				"renderqueue":{},
				"lightmixer":{},
				"uuid":"7acac03f-a753-49eb-b49e-a2bd1210019f",
				"assets reported":{}
			},
			"name":"Scene",
			"nodes":[
				0,
				1,
				2,
				3
			]
		}
	],
	"nodes":[
		{
			"mesh":0,
			"name":"PlasticBase"
		},
		{
			"mesh":1,
			"name":"Emission"
		},
		{
			"mesh":2,
			"name":"Circle.002"
		},
		{
			"mesh":3,
			"name":"Circle.003"
		}
	],
	"materials":[
		{
			"alphaMode":"BLEND",
			"doubleSided":true,
			"name":"Fake Crystal Glass Shadow Color Control",
			"pbrMetallicRoughness":{
				"baseColorFactor":[
					0.800000011920929,
					0.800000011920929,
					0.800000011920929,
					0.15000000596046448
				],
				"metallicFactor":0.6000000238418579,
				"roughnessFactor":0.10000000149011612
			}
		},
		{
			"doubleSided":true,
			"emissiveFactor":[
				0.6940392872030199,
				0,
				1
			],
			"extensions":{
				"KHR_materials_emissive_strength":{
					"emissiveStrength":199.98546838760376
				}
			},
			"name":"NeonEmission",
			"pbrMetallicRoughness":{
				"baseColorFactor":[
					0.800000011920929,
					0.800000011920929,
					0.800000011920929,
					1
				],
				"metallicFactor":0,
				"roughnessFactor":0.5
			}
		},
		{
			"doubleSided":true,
			"name":"PlasticBase",
			"pbrMetallicRoughness":{
				"baseColorFactor":[
					0.800000011920929,
					0.800000011920929,
					0.800000011920929,
					1
				],
				"metallicFactor":0,
				"roughnessFactor":0.5
			}
		},
		{
			"doubleSided":true,
			"name":"ColorREd",
			"pbrMetallicRoughness":{
				"baseColorFactor":[
					0.8008674383163452,
					0.18473808467388153,
					0.034521736204624176,
					1
				],
				"metallicFactor":0,
				"roughnessFactor":0.5
			}
		},
		{
			"doubleSided":true,
			"name":"ColorBlue",
			"pbrMetallicRoughness":{
				"baseColorFactor":[
					0.032398711889982224,
					0.20214976370334625,
					0.801546573638916,
					1
				],
				"metallicFactor":0,
				"roughnessFactor":0.5
			}
		}
	],
	"meshes":[
		{
			"name":"Plane.007",
			"primitives":[
				{
					"attributes":{
						"POSITION":0,
						"NORMAL":1,
						"TEXCOORD_0":2
					},
					"indices":3,
					"material":0
				}
			]
		},
		{
			"name":"Plane.008",
			"primitives":[
				{
					"attributes":{
						"POSITION":4,
						"NORMAL":5,
						"TEXCOORD_0":6
					},
					"indices":7,
					"material":1
				},
				{
					"attributes":{
						"POSITION":8,
						"NORMAL":9,
						"TEXCOORD_0":10
					},
					"indices":11,
					"material":2
				}
			]
		},
		{
			"name":"Circle.003",
			"primitives":[
				{
					"attributes":{
						"POSITION":12,
						"NORMAL":13,
						"TEXCOORD_0":14
					},
					"indices":15,
					"material":0
				},
				{
					"attributes":{
						"POSITION":16,
						"NORMAL":17,
						"TEXCOORD_0":18
					},
					"indices":19,
					"material":3
				}
			]
		},
		{
			"name":"Circle.004",
			"primitives":[
				{
					"attributes":{
						"POSITION":20,
						"NORMAL":21,
						"TEXCOORD_0":22
					},
					"indices":23,
					"material":0
				},
				{
					"attributes":{
						"POSITION":24,
						"NORMAL":25,
						"TEXCOORD_0":26
					},
					"indices":27,
					"material":4
				}
			]
		}
	],
	"accessors":[
		{
			"bufferView":0,
			"componentType":5126,
			"count":8693,
			"max":[
				0.8676709532737732,
				0.13060645759105682,
				0.4588344097137451
			],
			"min":[
				-0.7032496929168701,
				0.11642536520957947,
				-0.4504318833351135
			],
			"type":"VEC3"
		},
		{
			"bufferView":1,
			"componentType":5126,
			"count":8693,
			"type":"VEC3"
		},
		{
			"bufferView":2,
			"componentType":5126,
			"count":8693,
			"type":"VEC2"
		},
		{
			"bufferView":3,
			"componentType":5123,
			"count":14850,
			"type":"SCALAR"
		},
		{
			"bufferView":4,
			"componentType":5126,
			"count":8684,
			"max":[
				0.7768652439117432,
				0.15124505758285522,
				0.3970346450805664
			],
			"min":[
				-0.6204027533531189,
				0.1477184146642685,
				-0.3903545141220093
			],
			"type":"VEC3"
		},
		{
			"bufferView":5,
			"componentType":5126,
			"count":8684,
			"type":"VEC3"
		},
		{
			"bufferView":6,
			"componentType":5126,
			"count":8684,
			"type":"VEC2"
		},
		{
			"bufferView":7,
			"componentType":5123,
			"count":15468,
			"type":"SCALAR"
		},
		{
			"bufferView":8,
			"componentType":5126,
			"count":8684,
			"max":[
				0.7768653631210327,
				0.1477203220129013,
				0.3970346450805664
			],
			"min":[
				-0.6204027533531189,
				0.13032935559749603,
				-0.3903545141220093
			],
			"type":"VEC3"
		},
		{
			"bufferView":9,
			"componentType":5126,
			"count":8684,
			"type":"VEC3"
		},
		{
			"bufferView":10,
			"componentType":5126,
			"count":8684,
			"type":"VEC2"
		},
		{
			"bufferView":11,
			"componentType":5123,
			"count":15468,
			"type":"SCALAR"
		},
		{
			"bufferView":12,
			"componentType":5126,
			"count":9344,
			"max":[
				0.6816622614860535,
				0.12990380823612213,
				0.3215390741825104
			],
			"min":[
				-0.6193612813949585,
				0.10672327131032944,
				-0.1576303094625473
			],
			"type":"VEC3"
		},
		{
			"bufferView":13,
			"componentType":5126,
			"count":9344,
			"type":"VEC3"
		},
		{
			"bufferView":14,
			"componentType":5126,
			"count":9344,
			"type":"VEC2"
		},
		{
			"bufferView":15,
			"componentType":5123,
			"count":54720,
			"type":"SCALAR"
		},
		{
			"bufferView":16,
			"componentType":5126,
			"count":4672,
			"max":[
				0.6804934144020081,
				0.12984336912631989,
				0.32036808133125305
			],
			"min":[
				-0.6182733178138733,
				0.10764506459236145,
				-0.15675455331802368
			],
			"type":"VEC3"
		},
		{
			"bufferView":17,
			"componentType":5126,
			"count":4672,
			"type":"VEC3"
		},
		{
			"bufferView":18,
			"componentType":5126,
			"count":4672,
			"type":"VEC2"
		},
		{
			"bufferView":19,
			"componentType":5123,
			"count":27360,
			"type":"SCALAR"
		},
		{
			"bufferView":20,
			"componentType":5126,
			"count":9664,
			"max":[
				0.687798261642456,
				0.12995728850364685,
				0.3250751197338104
			],
			"min":[
				-0.6228830218315125,
				0.10672328621149063,
				-0.15274901688098907
			],
			"type":"VEC3"
		},
		{
			"bufferView":21,
			"componentType":5126,
			"count":9664,
			"type":"VEC3"
		},
		{
			"bufferView":22,
			"componentType":5126,
			"count":9664,
			"type":"VEC2"
		},
		{
			"bufferView":23,
			"componentType":5123,
			"count":56640,
			"type":"SCALAR"
		},
		{
			"bufferView":24,
			"componentType":5126,
			"count":4832,
			"max":[
				0.6866294145584106,
				0.12987111508846283,
				0.3239041566848755
			],
			"min":[
				-0.6217950582504272,
				0.10764507949352264,
				-0.15200641751289368
			],
			"type":"VEC3"
		},
		{
			"bufferView":25,
			"componentType":5126,
			"count":4832,
			"type":"VEC3"
		},
		{
			"bufferView":26,
			"componentType":5126,
			"count":4832,
			"type":"VEC2"
		},
		{
			"bufferView":27,
			"componentType":5123,
			"count":28320,
			"type":"SCALAR"
		}
	],
	"bufferViews":[
		{
			"buffer":0,
			"byteLength":104316,
			"byteOffset":0,
			"target":34962
		},
		{
			"buffer":0,
			"byteLength":104316,
			"byteOffset":104316,
			"target":34962
		},
		{
			"buffer":0,
			"byteLength":69544,
			"byteOffset":208632,
			"target":34962
		},
		{
			"buffer":0,
			"byteLength":29700,
			"byteOffset":278176,
			"target":34963
		},
		{
			"buffer":0,
			"byteLength":104208,
			"byteOffset":307876,
			"target":34962
		},
		{
			"buffer":0,
			"byteLength":104208,
			"byteOffset":412084,
			"target":34962
		},
		{
			"buffer":0,
			"byteLength":69472,
			"byteOffset":516292,
			"target":34962
		},
		{
			"buffer":0,
			"byteLength":30936,
			"byteOffset":585764,
			"target":34963
		},
		{
			"buffer":0,
			"byteLength":104208,
			"byteOffset":616700,
			"target":34962
		},
		{
			"buffer":0,
			"byteLength":104208,
			"byteOffset":720908,
			"target":34962
		},
		{
			"buffer":0,
			"byteLength":69472,
			"byteOffset":825116,
			"target":34962
		},
		{
			"buffer":0,
			"byteLength":30936,
			"byteOffset":894588,
			"target":34963
		},
		{
			"buffer":0,
			"byteLength":112128,
			"byteOffset":925524,
			"target":34962
		},
		{
			"buffer":0,
			"byteLength":112128,
			"byteOffset":1037652,
			"target":34962
		},
		{
			"buffer":0,
			"byteLength":74752,
			"byteOffset":1149780,
			"target":34962
		},
		{
			"buffer":0,
			"byteLength":109440,
			"byteOffset":1224532,
			"target":34963
		},
		{
			"buffer":0,
			"byteLength":56064,
			"byteOffset":1333972,
			"target":34962
		},
		{
			"buffer":0,
			"byteLength":56064,
			"byteOffset":1390036,
			"target":34962
		},
		{
			"buffer":0,
			"byteLength":37376,
			"byteOffset":1446100,
			"target":34962
		},
		{
			"buffer":0,
			"byteLength":54720,
			"byteOffset":1483476,
			"target":34963
		},
		{
			"buffer":0,
			"byteLength":115968,
			"byteOffset":1538196,
			"target":34962
		},
		{
			"buffer":0,
			"byteLength":115968,
			"byteOffset":1654164,
			"target":34962
		},
		{
			"buffer":0,
			"byteLength":77312,
			"byteOffset":1770132,
			"target":34962
		},
		{
			"buffer":0,
			"byteLength":113280,
			"byteOffset":1847444,
			"target":34963
		},
		{
			"buffer":0,
			"byteLength":57984,
			"byteOffset":1960724,
			"target":34962
		},
		{
			"buffer":0,
			"byteLength":57984,
			"byteOffset":2018708,
			"target":34962
		},
		{
			"buffer":0,
			"byteLength":38656,
			"byteOffset":2076692,
			"target":34962
		},
		{
			"buffer":0,
			"byteLength":56640,
			"byteOffset":2115348,
			"target":34963
		}
	],
	"buffers":[
		{
			"byteLength":2171988,
			"uri":"Nails.bin"
		}
	]
}
